<svg xmlns="http://www.w3.org/2000/svg" viewBox="0 0 641.0186 587.4059"><defs><style>.cls-1{fill:#262424;}</style></defs><title>simb.conejo</title><g id="Capa_8" data-name="Capa 8"><path d="M293.9467,183.5278c15.9919-5.2479,32.3719-9.4426,47.8558-16.0685,12.9915-5.5594,35.2371-.9109,41.6059,11.92,1.1983,2.414-.5386,8.6557-2.7972,10.5935-22.8259,19.584-46.042,38.64-68.2655,60.4092,19.6218-4.886,39.3525-9.3246,58.8219-14.8364,10.602-3.0015,39.18,7.2666,43.89,17.8484,1.1451,2.5722-.2247,7.5206-1.9555,10.2671-3.2172,5.1061-8.1091,8.9931-11.2944,14.1158-5.5137,8.8668-10.2571,18.2894-15.2677,27.3776,8.21,14.675,8.0061,15.3127-7.8476,17.774-20.8661,3.24-41.7368,6.4866-62.6676,9.1714-7.0806.9083-10.4029,4.2208-13.2627,11.3651-22.4494,56.086-57.9064,98.19-112.8046,118.4984a49.6588,49.6588,0,0,1-21.65,2.7721c46.5729-32.0149,89.43-66.7361,110.7361-127.79-13.2034,6.8277-28.6867-3.1378-37.89,18.1631-4.8029-8.4861-9.3161-14.0893-11.4128-20.5963-7.1295-22.1264-13.9511-44.4091-19.7522-66.9718-2.4805-9.648,5.8142-11.81,11.5255-9.6186,25.3014,9.7077,48.82-1.8435,72.9832-5.6528,2.0138-.3175,4.9574-.2523,5.8219-1.5954,12.3456-19.1835,24.4074-38.5792,38.5221-61.0883-15.7253,2.7767-27.4369,6.5264-39.14,6.4977-15.6224-.0384-26.1418,6.9511-36.9136,18.5057-10.664,11.4386-24.4092,19.6325-37.1526,28.6781-3.83,2.7186-8.8307,3.5235-13.2952,5.205l-1.8365-2.7539c4.0166-4.6559,7.8868-9.471,12.0742-13.9413,23.3573-24.9365,45.36-50.7746,54.8668-86.0772.72-2.6734,6.3318-5.9812,9.0143-5.4117,5.04,1.07,9.83,4.3732,14.31,7.4466,7.2628,4.9822,8.98,11.0735,2.3193,18.5225-3.8813,4.34-7.1938,9.271-10.7624,13.9361Q293.1366,181.86,293.9467,183.5278ZM311.8028,315.08c9.6552-2.0455,19.237-3.9349,28.76-6.1192,29.0927-6.6732,29.0793-6.718,32.8155-38.5808.2065-1.7622,1.3962-4.0763.74-5.1376-1.75-2.8309-4.539-7.5088-6.4211-7.2519-18.8256,2.5711-37.5513,5.99-59.7185,9.7484C334.49,284.0875,310.1227,298.7521,311.8028,315.08ZM247.93,325.9513c8.0544-1.3728,14.5371-2.1622,20.8774-3.654,5.5-1.2941,14.64-2.1114,15.5731-5.3475,3.5765-12.403,4.901-25.6572,5.9653-38.6979.1591-1.9483-5.74-6.5985-8.5354-6.3325-12.6116,1.2-25.1154,3.7192-38.9231,5.9692C244.5454,293.6918,246.145,308.9394,247.93,325.9513Z"/><path class="cls-1" d="M173.0026,465.4266q-2.3247,0-4.7354-.1929l-1.4043-.1123,1.1612-.7983c43.6923-30.0342,88.163-64.5376,110.1464-126.4028-4.3632,1.9492-8.9316,2.268-13.36,2.5771-8.9072.6216-17.3213,1.209-23.1973,14.8091l-.3984.9233-.4961-.8755c-1.6123-2.85-3.1641-5.3276-4.6641-7.7236-2.8867-4.61-5.38-8.5923-6.789-12.9653-5.8418-18.1294-13.3662-42.1289-19.7608-67.001-1.2754-4.96.292-7.6367,1.8311-9.0088,2.8037-2.498,7.2207-2.4038,10.3574-1.2007,18.4043,7.0606,36.209,2.6987,53.4277-1.518,6.3067-1.5445,12.8282-3.1416,19.2989-4.1622.4677-.0737.9843-.1274,1.5136-.1821,1.6065-.1665,3.4287-.355,3.9668-1.19,9.9053-15.3926,19.85-31.2754,30.3789-48.0908l7.54-12.0357c-4.6963.8526-8.9893,1.7744-13.1514,2.668-9.09,1.9521-16.9473,3.6391-24.832,3.6391-.0908,0-.1787,0-.2676,0-13.7139,0-24.2734,5.3228-36.4141,18.3462-8.3232,8.9283-18.6337,15.9693-28.6045,22.7788-2.8447,1.9424-5.7861,3.9512-8.625,5.9664-2.6933,1.9116-5.9638,2.9043-9.1259,3.8637-1.4239.4322-2.8955.8789-4.2832,1.4014l-.3721.14-2.2666-3.4.248-.288c1.2686-1.47,2.5215-2.9556,3.7754-4.4415,2.6739-3.17,5.4395-6.4482,8.3125-9.5151,22.459-23.9775,45.1866-50.3584,54.7491-85.8652.7812-2.8994,6.6162-6.4048,9.6005-5.771,5.1016,1.083,9.8262,4.3242,14.3946,7.4585l.0957.0654c4.0176,2.7564,6.2529,5.7959,6.6435,9.0357.3877,3.2138-1.0371,6.6562-4.2343,10.2324-2.6622,2.976-5.1026,6.2959-7.462,9.5063-1.0224,1.3921-2.0459,2.7842-3.09,4.1548l1.2959,2.6655c4.707-1.5385,9.5146-3.01,14.168-4.434,11.039-3.378,22.4541-6.8707,33.2324-11.483,13.1611-5.6347,35.6982-1.042,42.251,12.1573,1.2724,2.5625-.42,9.05-2.9209,11.1948q-6.6621,5.7165-13.3594,11.397c-17.7412,15.0918-36.0723,30.6845-53.5635,47.7036q7.7637-1.9227,15.54-3.7886c13.6386-3.2993,27.7421-6.7109,41.4785-10.6,10.8457-3.0737,39.7187,7.4238,44.4824,18.1265,1.29,2.8974-.3262,8.0971-1.9893,10.7368a53.4177,53.4177,0,0,1-5.6591,7.0615,51.7894,51.7894,0,0,0-5.6338,7.0518c-3.88,6.2387-7.43,12.8515-10.8633,19.2465-1.4141,2.6348-2.8252,5.2632-4.2569,7.8648,4.0909,7.3179,6.1553,11.2764,4.9288,13.793-1.2168,2.498-5.3877,3.2529-13.2715,4.477l-.7266.1128c-20.2851,3.1494-41.26,6.4062-61.9551,9.06-6.5654.8423-9.9316,3.7349-12.8623,11.0552C278.9,404.4246,241.9059,443.2786,190.1315,462.432A48.6849,48.6849,0,0,1,173.0026,465.4266Zm-3.2305-1.0923a48.686,48.686,0,0,0,20.0117-2.84c51.4951-19.05,88.2989-57.7188,112.5137-118.2159,3.0527-7.6245,6.7559-10.789,13.6631-11.6752,20.6816-2.6524,41.65-5.9082,61.9277-9.0567l.7266-.1128c7.1191-1.105,11.5322-1.8857,12.5273-3.9267,1.0186-2.0909-1.1386-6.1372-5.039-13.1089l-.1358-.2422.1348-.2432c1.4756-2.6782,2.93-5.3852,4.3857-8.0981,3.44-6.4092,6.9981-13.0362,10.8946-19.3023a52.5577,52.5577,0,0,1,5.74-7.1919,52.6906,52.6906,0,0,0,5.5566-6.9262c1.7412-2.7642,2.959-7.4678,1.9209-9.7969-4.625-10.3921-32.7158-20.5645-43.2968-17.5713-13.754,3.8941-27.8672,7.3081-41.5147,10.6094-5.7773,1.3974-11.5547,2.7949-17.3223,4.2314l-1.7841.4439,1.3134-1.2862c17.9121-17.5459,36.7325-33.5551,54.9327-49.0376q6.6913-5.6909,13.3574-11.394c2.1513-1.8462,3.7519-7.8228,2.6748-9.9917-6.3291-12.749-28.1738-17.1533-40.9619-11.6826-10.8272,4.6338-22.2686,8.1348-33.3321,11.52-4.7861,1.4643-9.7343,2.9785-14.5634,4.5635l-.4151.1362-1.9472-4.0054.1875-.2446c1.1054-1.4443,2.1855-2.9145,3.2656-4.3843,2.374-3.23,4.8281-6.5693,7.5215-9.5815,2.998-3.3521,4.3388-6.53,3.9873-9.4458-.3545-2.9414-2.4453-5.7442-6.2168-8.3311l-.0948-.0649c-4.4882-3.0791-9.1289-6.2632-14.0361-7.3047-2.4307-.5225-7.793,2.6934-8.4287,5.0527-9.6211,35.73-32.4385,62.2188-54.9834,86.2886-2.8555,3.0483-5.6123,6.3159-8.2783,9.4766-1.1748,1.3916-2.3486,2.7832-3.5342,4.1616l1.4063,2.1094c1.3037-.4746,2.6582-.8858,3.9716-1.2842,3.086-.9365,6.2764-1.9053,8.8379-3.7227,2.8457-2.02,5.791-4.0317,8.6387-5.9765,9.9258-6.7788,20.1894-13.7881,28.4365-22.6348,12.3516-13.249,23.124-18.6646,37.1455-18.6646.0908,0,.1787,0,.2676,0,7.78,0,15.5889-1.6767,24.6231-3.6167,4.496-.9658,9.1455-1.9643,14.2968-2.8735l1.1084-.1958-8.7363,13.9448c-10.53,16.8184-20.4775,32.7037-30.3857,48.1021-.7989,1.2392-2.7842,1.4448-4.7051,1.6435-.5108.0533-1.0088.1045-1.46.1753-6.43,1.0137-12.9306,2.606-19.2178,4.1455-17.3671,4.2544-35.3261,8.6543-54.0224,1.4805-3.377-1.2949-7.2139-.8779-9.334,1.0137-1.91,1.7021-2.4385,4.4731-1.5283,8.0132,6.3877,24.8462,13.9062,48.8271,19.7431,66.9433,1.3711,4.2544,3.834,8.1875,6.6856,12.7417,1.3535,2.1621,2.749,4.39,4.1973,6.9033,6.11-13.28,15.02-13.9023,23.6416-14.5039,4.7021-.3281,9.5644-.6674,14.0732-2.999l1.1152-.5766-.414,1.1855C257.7721,399.4188,213.4879,434.2093,169.7721,464.3343Zm77.7168-137.8-5.1484-49.063.4668-.0761c3.7226-.6065,7.3515-1.2329,10.913-1.8477,9.6749-1.67,18.8145-3.2476,28.043-4.1255,1.9512-.1929,5.2549,1.7754,7.2881,3.7827.8633.8521,1.875,2.0791,1.792,3.0879-1.0381,12.7324-2.3555,26.2158-5.9824,38.7959-.8076,2.7993-6.3965,3.8472-11.8018,4.8609-1.4922.28-2.9023.5444-4.1377.8349-4.3476,1.023-8.6719,1.7027-13.68,2.49-2.2812.3584-4.6757.7348-7.2275,1.17Zm-4.0547-48.228,4.9375,47.0635c2.36-.3985,4.5869-.7486,6.7149-1.083,4.9882-.7842,9.2949-1.4615,13.6064-2.4761,1.2568-.2954,2.6777-.562,4.1826-.8443,4.628-.8676,10.3877-1.9482,11.0244-4.1552,3.6016-12.4912,4.9131-25.918,5.9473-38.6.0283-.3487-.3467-1.1587-1.498-2.295-1.837-1.8125-4.877-3.6523-6.4913-3.4995-9.19.875-18.3115,2.4493-27.9677,4.1158C250.4743,277.1224,246.9977,277.7225,243.4342,278.306Zm67.9277,37.3779-.0566-.5532c-.5879-5.7144,1.9346-11.2217,4.375-16.5474,4.6865-10.228,9.1123-19.8881-7.9639-30.4189l-1.13-.6968,1.3086-.2222c5.0039-.8481,9.832-1.6792,14.5263-2.4873,16.4326-2.8286,30.624-5.2714,45.209-7.2636,1.9541-.2583,4.1826,3.0551,6.6738,7.0962l.24.3886c.5371.87.1709,2.1577-.2168,3.521a13.171,13.171,0,0,0-.4522,1.9375c-3.748,31.9615-4.0586,32.3257-33.2012,39.01-6.5332,1.499-13.2187,2.8843-19.6835,4.2241q-4.5322.94-9.085,1.897Zm-2.0136-47.67c16.5176,10.7412,11.8027,21.03,7.2412,30.9863-2.3027,5.0269-4.6826,10.2193-4.3369,15.4732q4.2773-.9039,8.5351-1.78c6.46-1.3389,13.14-2.7231,19.6641-4.22,28.73-6.59,28.73-6.59,32.4228-38.0874a13.9123,13.9123,0,0,1,.4913-2.1587c.2968-1.044.6337-2.2271.3281-2.7222l-.24-.3891c-1.4736-2.3882-4.22-6.8462-5.6884-6.63-14.5674,1.9892-28.751,4.4311-45.1748,7.2578C318.2994,266.4823,313.8952,267.2406,309.3483,268.0135Z"/><path d="M313.2466,335.2889c5.3373,1.1386,11.4982,1.6438,17.0927,3.8308,8.9908,3.5149,13.2268,9.1752,10.7214,21.3307a276.05,276.05,0,0,0-5.3987,51.5175c-.2812,19.9086,9.2059,31.0481,27.7955,32.3383,15.9734,1.1085,32.1724-.4365,48.2047-1.757,15.6457-1.2886,24.3988-11.898,28.0845-27.6715,2.8854-12.3481,5.3592-24.8078,8.0162-37.2178l3.6529-.371c1.1952,4.5366,2.4791,9.0486,3.5689,13.6144,3.1573,13.2294,5.5255,26.7412,9.5972,39.6312,2.7153,8.5962,1.5007,15.3838-4.6829,20.2044-6.9364,5.4071-14.4521,10.7291-22.4825,13.589-27.2674,9.7108-55.3463,10.7365-83.358,4.5425-26.8335-5.9335-40.3588-24.2453-40.7417-53.9136C312.98,388.8722,313.2466,362.7785,313.2466,335.2889Z"/><path class="cls-1" d="M388.6139,473.2415a160.2836,160.2836,0,0,1-34.6641-3.8828c-26.9043-5.95-40.7441-24.2509-41.1328-54.3955-.2324-18.0078-.1787-35.728-.1211-54.4887q.0381-12.4329.0508-25.1856v-.6182l.6045.1294c1.6074.3428,3.2656.6236,5.02.9209a61.0419,61.0419,0,0,1,12.1494,2.9326c10.0821,3.9419,13.38,10.4908,11.0283,21.898a274.9256,274.9256,0,0,0-5.3876,51.4229c-.2764,19.5654,9.1738,30.5727,27.33,31.8325,14.7539,1.0249,29.9024-.2388,44.5567-1.4595l3.5722-.2969c14.3858-1.1845,23.6856-10.3652,27.6387-27.2866,1.9961-8.5376,3.8242-17.2754,5.5928-25.7251q1.2026-5.7444,2.4219-11.4834l.0761-.356,4.4405-.4511.1084.4131q.5625,2.1342,1.1425,4.2636c.8262,3.0591,1.6807,6.2222,2.43,9.3619,1,4.1894,1.9356,8.4746,2.84,12.6191,1.9521,8.9409,3.9707,18.1865,6.747,26.978,2.8946,9.1607,1.3077,15.9478-4.8515,20.75-6.5518,5.107-14.3633,10.7242-22.6221,13.6656A145.1533,145.1533,0,0,1,388.6139,473.2415ZM313.7467,335.9036q-.0015,12.4578-.0508,24.5743c-.0576,18.7563-.1113,36.4726.1211,54.4726.3819,29.6187,13.958,47.5957,40.35,53.4317,28.8086,6.3706,56.7637,4.8486,83.0821-4.5254,8.125-2.8936,15.8535-8.4541,22.3427-13.5122,5.79-4.5142,7.2666-10.9449,4.5137-19.66-2.791-8.8345-4.8144-18.1025-6.77-27.0659-.9043-4.14-1.8389-8.42-2.8359-12.6-.7461-3.1255-1.5987-6.2818-2.4229-9.3335-.3467-1.2852-.6943-2.57-1.0342-3.8565l-2.8652.291q-1.19,5.5576-2.3447,11.1231c-1.7705,8.4556-3.6006,17.1992-5.5977,25.748-4.0644,17.3921-13.6631,26.8316-28.5312,28.0562l-3.5713.2964c-14.6924,1.2241-29.8877,2.4887-44.708,1.4609-18.7744-1.3032-28.5469-12.66-28.2617-32.8442a275.8488,275.8488,0,0,1,5.4091-51.6113c2.2618-10.9722-.7558-16.9883-10.4131-20.7642a60.2545,60.2545,0,0,0-11.9531-2.8779C316.6569,336.4447,315.1832,336.1952,313.7467,335.9036Z"/><path d="M354.5605,351.47c20.6523-1.0532,35.9388,3.8156,48.9094,15.4962,3.4264,3.0858,6.3509,9.1431,6.3139,13.8063-.052,6.4621-3.12,12.8963-4.8971,19.3425-5.3673-1.8559-11.9092-2.2268-15.8689-5.8624-9.6662-8.8751-18.2942-19.1028-26.9911-29.1372C359.47,362.1653,358.0829,358.0393,354.5605,351.47Z"/><path class="cls-1" d="M405.2272,400.7611l-.5039-.1739c-1.6553-.5722-3.4658-1.0117-5.2178-1.4365-3.9375-.9555-8.0088-1.9438-10.8252-4.53-8.7588-8.0405-16.7725-17.312-24.5225-26.2778l-2.5087-2.9c-1.6973-1.9585-2.8565-4.3476-4.461-7.6548-.8574-1.7676-1.83-3.7715-3.0683-6.0815l-.3731-.6953.7881-.0406c20.6152-1.0488,36.2666,3.9141,49.27,15.6241,3.67,3.3061,6.5156,9.5351,6.4785,14.1816-.0371,4.605-1.5908,9.231-3.0937,13.7046-.6358,1.8921-1.293,3.8481-1.8213,5.7666ZM355.3717,351.932c1.0742,2.0356,1.9414,3.8232,2.7158,5.4194,1.5713,3.2383,2.7061,5.5776,4.3174,7.436l2.51,2.9009c7.7314,8.9448,15.7256,18.1939,24.4414,26.1958,2.6269,2.4121,6.5713,3.3692,10.3857,4.2949,1.6006.3882,3.25.7881,4.8057,1.2945.5078-1.7788,1.11-3.5723,1.6943-5.3111,1.4785-4.3994,3.0069-8.9482,3.042-13.394.0342-4.3208-2.7236-10.3462-6.1484-13.4307C390.3317,355.8065,375.5748,351.0438,355.3717,351.932Z"/></g></svg>