<svg xmlns="http://www.w3.org/2000/svg" viewBox="0 0 641.0186 587.4059"><defs><style>.cls-1{stroke:#262424;stroke-miterlimit:10;}</style></defs><title>lluviaestrellas</title><g id="Capa_14" data-name="Capa 14"><path class="cls-1" d="M197.6,332.2082a6.4926,6.4926,0,0,1-3.72-1.1689l-24.4288-17.043-27.8877,10.4629a6.5,6.5,0,0,1-8.5029-7.9756l8.6592-28.5-18.5674-23.29a6.5,6.5,0,0,1,4.957-10.5508l29.7813-.5713,16.4121-24.8555a6.5,6.5,0,0,1,11.5664,1.4541l9.7461,28.1465,28.7119,7.9278a6.5006,6.5006,0,0,1,2.19,11.45l-23.7568,17.9668,1.3311,29.7559a6.499,6.499,0,0,1-6.4922,6.791ZM170.3664,300.21a6.4991,6.4991,0,0,1,3.72,1.1689l16.4307,11.4629-.8955-20.0127a6.5014,6.5014,0,0,1,2.5722-5.4756L208.172,275.27l-19.3115-5.332a6.5016,6.5016,0,0,1-4.4121-4.1387l-6.5547-18.93-11.0381,16.7167a6.4972,6.4972,0,0,1-5.2988,2.918l-20.0293.3838,12.4873,15.6641a6.5012,6.5012,0,0,1,1.1377,5.9414l-5.8242,19.1679,18.7559-7.0371A6.5044,6.5044,0,0,1,170.3664,300.21Zm-8.9346-40.2051h0Z"/><path class="cls-1" d="M217.5588,243.3957A6.5,6.5,0,0,1,212.9621,232.3L334.15,111.1115a6.5,6.5,0,0,1,9.1933,9.1914L222.1554,241.4914A6.4806,6.4806,0,0,1,217.5588,243.3957Z"/><path class="cls-1" d="M217.3146,463.1467a6.4922,6.4922,0,0,1-3.72-1.169l-24.4287-17.0429-27.8877,10.4629a6.5,6.5,0,0,1-8.5029-7.9756l8.6591-28.5-18.5673-23.29a6.5,6.5,0,0,1,4.957-10.5507l29.7812-.5713,16.4121-24.8555a6.5,6.5,0,0,1,11.5665,1.4541l9.746,28.1455,28.712,7.9287a6.5007,6.5007,0,0,1,2.19,11.45L222.4758,426.6l1.331,29.7559a6.4992,6.4992,0,0,1-6.4922,6.791Zm-27.2334-31.9981a6.5,6.5,0,0,1,3.72,1.169l16.4306,11.4629-.8955-20.0127a6.5012,6.5012,0,0,1,2.5723-5.4756l15.9785-12.084-19.3115-5.332a6.5014,6.5014,0,0,1-4.4121-4.1387l-6.5547-18.93-11.0381,16.7168a6.4973,6.4973,0,0,1-5.2988,2.918l-20.0293.3838L173.73,413.49a6.5018,6.5018,0,0,1,1.1377,5.9415L169.0431,438.6l18.7559-7.0371A6.5049,6.5049,0,0,1,190.0812,431.1486Zm-8.9345-40.205h0Z"/><path class="cls-1" d="M237.2736,374.3342a6.5005,6.5005,0,0,1-4.5957-11.0967l78.4229-78.4228a6.5,6.5,0,1,1,9.1923,9.1923L241.87,372.43A6.4813,6.4813,0,0,1,237.2736,374.3342Z"/><path class="cls-1" d="M371.6379,448.508a6.4929,6.4929,0,0,1-3.72-1.1689l-24.4287-17.042L315.6008,440.759a6.5,6.5,0,0,1-8.502-7.9756l8.6592-28.499L297.19,380.9934a6.5,6.5,0,0,1,4.958-10.5508l29.7813-.5713,16.4121-24.8555a6.5,6.5,0,0,1,11.5664,1.4541l9.7461,28.1475,28.7119,7.9277a6.5007,6.5007,0,0,1,2.19,11.45L376.798,411.9611,378.13,441.717a6.499,6.499,0,0,1-6.4922,6.791Zm-27.2334-31.997a6.5014,6.5014,0,0,1,3.72,1.1689l16.43,11.4619-.8955-20.0127a6.5014,6.5014,0,0,1,2.5722-5.4756l15.9786-12.083-19.3106-5.332a6.5016,6.5016,0,0,1-4.4121-4.1387l-6.5547-18.9306L340.8937,379.886a6.4974,6.4974,0,0,1-5.2988,2.9179l-20.03.3838,12.4893,15.665a6.5007,6.5007,0,0,1,1.1357,5.9415l-5.8232,19.1669,18.7558-7.0361A6.5053,6.5053,0,0,1,344.4045,416.511ZM335.47,376.3049h0Z"/><path class="cls-1" d="M391.5969,359.6955A6.5,6.5,0,0,1,387.0011,348.6L508.1886,227.4123a6.4993,6.4993,0,1,1,9.1915,9.1914L396.1926,357.7912A6.4772,6.4772,0,0,1,391.5969,359.6955Z"/><path class="cls-1" d="M392.3439,285.2131a6.4928,6.4928,0,0,1-3.72-1.1689l-24.4287-17.042-27.8887,10.4619a6.5,6.5,0,0,1-8.5029-7.9756l8.6592-28.5-18.5674-23.29a6.5,6.5,0,0,1,4.957-10.5508l29.7813-.5713L369.047,181.72a6.5,6.5,0,0,1,11.5665,1.4551l9.746,28.1465,28.711,7.9277a6.5007,6.5007,0,0,1,2.19,11.45l-23.7568,17.9668,1.332,29.7559a6.4992,6.4992,0,0,1-6.4922,6.791ZM365.1105,253.216a6.5012,6.5012,0,0,1,3.72,1.169l16.43,11.4619-.8955-20.0127a6.5012,6.5012,0,0,1,2.5723-5.4756l15.9775-12.084-19.3086-5.331a6.501,6.501,0,0,1-4.413-4.1387l-6.5547-18.9307L361.5988,216.592a6.4989,6.4989,0,0,1-5.2988,2.917l-20.0293.3838,12.4873,15.6641a6.5012,6.5012,0,0,1,1.1377,5.9414l-5.8242,19.1679,18.7568-7.0361A6.5026,6.5026,0,0,1,365.1105,253.216ZM356.175,213.01h0Z"/><path class="cls-1" d="M412.3019,196.4006a6.5,6.5,0,0,1-4.5967-11.0967l74.1934-74.1933a6.5007,6.5007,0,0,1,9.1934,9.1933l-74.1934,74.1934A6.4844,6.4844,0,0,1,412.3019,196.4006Z"/></g></svg>