<svg id="Capa_3" data-name="Capa 3" xmlns="http://www.w3.org/2000/svg" viewBox="0 0 641.0186 587.4059"><defs><style>.cls-1{fill:#262424;}</style></defs><title>simb.tauro</title><path class="cls-1" d="M277.1012,261.9308c-9.972-13.2708-19.7639-25.5531-28.7258-38.4138-11.768-16.8877-28.3859-23.3458-48.9114-23.5832V173.1159c26.9718-.7964,49.3263,7.41,66.2276,28.2681,5.4743,6.7559,10.8671,13.7622,15.0644,21.3371,19.2388,34.72,78.7,29.3046,95.6461,2.6959a241.2323,241.2323,0,0,1,17.814-23.9685c17.0882-20.649,39.4662-29.1186,66.8361-28.3549v27.0347c-27.734-1.4218-44.2978,14.0932-58,35.0625-5.8259,8.9155-13.79,16.4338-21.7067,25.6649,29.4843,21.63,46.4093,50.6188,43.27,88.6076-2.14,25.8977-13.3157,47.762-33.4664,64.5525-40.1327,33.44-97.466,28.8848-132.1867-9.8242C230.1366,372.0542,219.2445,306.5869,277.1012,261.9308Zm-14.1843,79.4944c-.0761,37.48,30.7289,68.1618,68.1144,67.8428,36.373-.31,66.8836-31.53,66.6552-68.204-.23-36.9651-30.5811-66.9637-67.6786-66.893A67.0613,67.0613,0,0,0,262.9169,341.4252Z"/><path d="M330.1205,437.929q-3.597,0-7.2076-.2734a97.1155,97.1155,0,0,1-65.0669-32.4624c-17.1274-19.0948-25.9062-46.32-23.4829-72.8262,1.7437-19.07,10.2364-46.71,40.6533-70.7114-2.8061-3.7232-5.5971-7.3716-8.3574-10.98-6.853-8.959-13.3261-17.4209-19.5141-26.3013-10.731-15.3989-25.8872-22.6885-47.6978-22.94l-1.4829-.0171V171.66l1.4556-.043c28.9746-.85,51.0288,8.5732,67.4375,28.8232,5.3672,6.6241,10.9248,13.82,15.2109,21.5542,7.9556,14.3575,23.9609,22.9419,43.9116,23.5513,21.0259.65,40.774-7.77,49.1573-20.9336a240.753,240.753,0,0,1,17.9233-24.12c16.7627-20.2544,39.0215-29.7,68.0337-28.898l1.458.0411v30.0722l-1.5767-.081c-29.1635-1.4888-45.0092,16.5429-56.6674,34.3847-4.024,6.1582-9.0132,11.6192-14.2955,17.4009-2.1186,2.3189-4.2993,4.7056-6.4751,7.2022,31.1939,23.4086,45.5176,53.3359,42.5733,88.9726-2.1934,26.5449-13.6328,48.61-34.0015,65.5816A96.6294,96.6294,0,0,1,330.1205,437.929ZM200.9642,198.4622c21.7891.5855,37.71,8.51,48.6416,24.1973,6.15,8.8252,12.6035,17.2617,19.436,26.1933,3.0557,3.9947,6.1485,8.0376,9.2588,12.1773l.89,1.1836-1.1724.9048c-30.5117,23.55-38.956,50.8046-40.667,69.5214-2.3139,25.3077,6.3955,52.3409,22.7285,70.55,34.5567,38.5264,90.4927,42.6856,130.1094,9.6734,19.7275-16.4375,30.8076-37.81,32.9317-63.524,2.894-35.0205-11.4595-64.3837-42.6622-87.2744l-1.3051-.9575,1.0537-1.2285c2.5542-2.9785,5.1147-5.7808,7.5908-8.4907,5.1978-5.69,10.1079-11.0635,13.9985-17.0181,11.9156-18.2353,28.0713-36.668,57.7559-35.8037V174.5613c-27.3145-.4306-48.3262,8.6861-64.18,27.8438a238.0355,238.0355,0,0,0-17.7046,23.8178c-8.9321,14.024-29.729,22.9952-51.7793,22.3208-21.0342-.6425-37.9624-9.79-46.4438-25.0957-4.1743-7.5322-9.6367-14.602-14.918-21.12-15.5044-19.1348-36.3125-28.2324-63.562-27.7471ZM330.4466,410.77a69.3722,69.3722,0,0,1-69.03-69.3481l1.5.0029-1.5-.0029a68.5608,68.5608,0,0,1,68.5884-68.751h.1338c37.8516,0,68.8125,30.6484,69.0474,68.3838.2334,37.4712-30.9717,69.396-68.1421,69.7129C330.846,410.7693,330.6449,410.77,330.4466,410.77Zm-.3076-135.0991h-.1279a66.05,66.05,0,0,0,1.0078,132.0967c35.5478-.3028,65.3911-30.8452,65.1675-66.6944C395.9618,304.9856,366.3431,275.6712,330.139,275.6712Z"/></svg>